# xmcd CD database file
#
# Track frame offsets:
#	150
#	14225
#	27163
#	38794
#	51380
#	64605
#	77769
#	91651
#	103567
#	118242
#	131330
#	143658
#	157630
#	171971
#	185412
#	197897
#	211721
#	224531
#	235462
#	250470
#	261732
#	277292
#	289014
#	301424
#	314634
#
# Disc length: 4379 seconds
#
# Revision: 0
# Processed by: cddbd v1.5.2PL0 Copyright (c) Steve Scherf et al.
# Submitted via: CDex 1.51
#
DISCID=7d111919
DTITLE=Django Reinhardt - The complete series (Sampler)
DYEAR=2010
DGENRE=Jazz
TTITLE0=Sweet Georgia Brown
TTITLE1=You're driving me crazy
TTITLE2=Stomping at Decca
TTITLE3=Lambeth walk
TTITLE4=My sweet
TTITLE5=Ain't' misbehavin'
TTITLE6=I've found a new baby
TTITLE7=Django's tiger
TTITLE8=Georgia on my mind
TTITLE9=Billets doux
TTITLE10=St. Louis Blues
TTITLE11=You rascal you
TTITLE12=Daphne
TTITLE13=Belleville
TTITLE14=Souveniers
TTITLE15=It don't mean a thing (if itain't got the swing)
TTITLE16=At Jimmy's Bar
TTITLE17=Brazil
TTITLE18=Swing 39
TTITLE19=Exactly like you
TTITLE20=Chicago
TTITLE21=Dinah
TTITLE22=Honeysuckle rose
TTITLE23=I got rhythm
TTITLE24=Black and white
EXTD=YEAR: 2010
EXTT0=
EXTT1=
EXTT2=
EXTT3=
EXTT4=
EXTT5=
EXTT6=
EXTT7=
EXTT8=
EXTT9=
EXTT10=
EXTT11=
EXTT12=
EXTT13=
EXTT14=
EXTT15=
EXTT16=
EXTT17=
EXTT18=
EXTT19=
EXTT20=
EXTT21=
EXTT22=
EXTT23=
EXTT24=
PLAYORDER=
